<svg width="504" height="444" viewBox="0 0 504 444" fill="none" xmlns="http://www.w3.org/2000/svg">
<circle cx="252" cy="222" r="76" fill="#D9D9D9" fill-opacity="0.3"/>
<path fill-rule="evenodd" clip-rule="evenodd" d="M252.491 17C357.246 17 443.65 95.5734 455.982 197H377.008C365.397 138.844 314.061 95.0221 252.491 95.0221C190.92 95.0221 139.585 138.844 127.973 197H49C61.3318 95.5734 147.735 17 252.491 17ZM49.1241 248C61.9003 348.943 148.08 427 252.491 427C356.902 427 443.082 348.943 455.858 248H376.805C364.807 305.657 313.708 348.978 252.491 348.978C191.274 348.978 140.175 305.657 128.177 248H49.1241Z" fill="#D9D9D9" fill-opacity="0.3"/>
</svg>
