<?xml version="1.0" encoding="UTF-8"?>
<svg id="Calque_2" data-name="Calque 2" xmlns="http://www.w3.org/2000/svg" viewBox="0 0 249.24 301.17">
  <defs>
    <style>
      .cls-1, .cls-2, .cls-3, .cls-4, .cls-5 {
        stroke-width: 0px;
      }

      .cls-2 {
        fill: #ee7277;
      }

      .cls-3 {
        fill: #fff;
      }

      .cls-4 {
        fill: #ffd73e;
      }

      .cls-5 {
        fill: #ee4e36;
      }
    </style>
  </defs>
  <g id="svg1768">
    <g id="layer1">
      <g id="g2864">
        <path id="path2423" class="cls-1" d="m173.43,0c-.08,0-.17,0-.24,0-.09.01-.18.04-.28.08-.25.05-.47.16-.67.34-.77.7-1.18,1.95-1.57,5.19,0,.03,0,.06-.01.09-.11.94-.22,2.02-.34,3.33-.1,1.18-.16,5.33-.16,10.44-.03,2.92-.02,6.08.03,9.37.05,6.53.14,12.9.28,16.04.12,2.61.25,5.2.4,7.75.05.93.09,1.78.15,2.55.02.36.05.74.08,1.1.91,14.09,2.23,26.13,3.35,29.82,0,.02,0,.03.01.05.01.08.03.17.03.23-.03.21-.32.19-1.17,0-6.05-1.34-19.55-1.32-31.31.03-8.61.99-21.47,4.17-25.85,6.38l-.39.2c-.39.15-.73.27-.98.34-.3.06-.53.06-.72.02l-.87-.58c-2.12-1.4-6.33-3.69-10.78-5.93-.5-.26-.99-.51-1.43-.73-1.53-.77-3.12-1.52-4.76-2.27-1.49-.69-2.92-1.34-4.18-1.87-19.09-8.06-42.33-13.91-61.65-15.51-2.17-.18-4.84-.27-7.46-.28-.68-.02-1.31-.03-1.85-.03-.99,0-1.92.03-2.82.08-.6.02-1.17.04-1.7.07-2.22.11-3.88.3-4.36.54-.33.16-.59.32-.81.49-.51.3-.77.66-.77,1.08,0,.18.06.4.18.66.07.23.18.48.32.76.33.65,1.46,1.95,2.9,3.45,1.14,1.22,2.49,2.53,3.92,3.8,1.3,1.18,2.57,2.27,3.58,3.02,3.26,2.41,9.94,6.96,10.22,6.96.11,0,.67.33,1.24.74,1.24.88,3.95,2.45,7.36,4.31.87.53,2.87,1.58,5.33,2.85,7.34,3.85,15.94,8.11,21.02,10.29,1.62.7,3.34,1.41,5.08,2.13.99.42,2.28.95,3.82,1.56,7.19,2.9,14.2,5.53,17.11,6.38,1.09.32,1.59.52,1.75.76-.02.2-.07.5-.15.9-1.4,4.08-3.07,14.87-3.08,20.24,0,.3-.01.58-.02.84-.02.15-.03.25-.04.37-.1.58-.21.92-.34,1.04-.21-.06-.6-.2-1.1-.4-.63-.27-1.46-.64-2.33-1.04-1.77-.82-3.6-1.62-4.07-1.76-.47-.15-1.62-.62-2.57-1.04-2.19-.99-6.02-2.43-11.66-4.37-15.54-5.36-33.46-9.53-48.88-11.38-1.79-.21-4.58-.44-7.5-.64-2.26-.18-4.49-.32-6.68-.41-1.03-.04-1.84-.07-2.56-.08-1.62-.05-2.75-.05-2.96.03-.24.09-.4.28-.47.59-.06.14-.08.31-.08.52,0,0,0,.01,0,.02,0,0,0,.01,0,.02,0,.15.05.4.12.71.16.94.55,2.3,1.21,4.23,2.7,7.98,6.97,18.34,11.44,28.1h0c.17.41.62,1.39,1.21,2.62,3.76,8.04,7.57,15.47,10.65,20.55,1.11,1.82,1.68,2.89,2.3,3.51.14.18.24.31.3.34.02,0,.08.02.17.03.93.56,2.22.39,5.36.25.5-.02,1.25-.04,2.17-.04,1.8.03,3.75.05,5.87.06,1.89.01,3.72.03,5.5.06,7.12.14,14.74.36,17.33.57.75.06,2.88.22,4.72.36.44.03.85.07,1.23.11,1.1.14,1.81.29,2.03.45,0,.13-.04.36-.1.66-.09.34-.21.75-.35,1.2-2.91,9.45-9.41,32.18-9.41,32.91,0,.07.01.13.03.19,0,.05-.03.13-.03.15,0,.09.13.21.4.37.68.57,2.36,1.25,6.12,2.59,6.25,2.22,14.13,5.16,16.02,5.96.06.03.13.07.19.1.42.25.72.53,1.02,1.07.11.21.2.43.27.65.22.71.71,2.1,1.1,3.09.04.11.08.21.12.31.24.79.36,1.32.38,1.72-.02.25-.09.48-.21.76-.36.88-.63,1.02-2.36,1.23-1.07.13-2.21.43-3.32.84-.71.23-1.4.53-2.06.89-1.85.94-3.39,2.12-4.06,3.25-.49.42-.9.72-1.11.79-.28-.3-.72-.88-1.18-1.55-.55-.81-1.86-2.35-3.17-3.76-.17-.19-.35-.37-.52-.55-.1-.1-.2-.22-.3-.31-2.39-2.45-2.92-2.83-3.93-2.85,0,0-.01,0-.02,0,0,0-.01,0-.02,0,0,0,0,0-.01,0-.01,0-.03,0-.04,0,0,0-.01,0-.02,0-.02,0-.05,0-.07,0-1.39.05-2.16.87-2.45,2.6-.1.62-.38,1.32-.66,1.68-.1.07-.19.18-.28.31-.64.71-1.01,2.15-1.14,4.12-.04.46-.07.92-.07,1.38,0,.62.03,1.29.07,1.99.21,4.41,1.19,10.2,2.88,16.2.48,1.7,1.08,3.88,1.35,4.85.77,2.83,2.15,6.65,3.73,10.46.44,1.24,1.3,3.19,2.32,5.31,1.24,2.68,2.48,5.1,3.53,6.82,3.17,5.19,5.73,8.01,8.3,9.15,1.74.77,2.84.64,3.94-.46l.72-.72,2.27.74c.05.02.12.04.18.05.81.32,1.67.56,2.74.73.52.12,1.02.23,1.41.29,2.62.43,14.53.42,19.9-.01,2.26-.18,6-.44,8.29-.56l4.18-.23-.19,1.43c-.11.8-.02,1.43.24,1.88.29.56.84.85,1.62.86.76.03,1.73-.19,2.89-.69l1.71-.73,1.12,1.22c.2.29.42.51.65.67.37.36.67.61.76.61.42,0,1.72-.76,2.49-1.46l.39-.35c.16-.1.28-.16.38-.18.07,0,.13.03.2.06l.87.87c1.26,1.26,1.67,1.21,4.27-.54l1.7-1.15.23.25.93,1.12c1.69,2.04,2.74,1.92,5.28-.58l1.51-1.5c.26-.2.48-.33.66-.41l1.44.41c.82.23,1.44.39,1.95.49l1.19.35.83-.43c.37-.12.76-.31,1.25-.56l1.81-.92,1.93,1.88s.09.09.14.13c.41.41.8.76,1.18,1.04,2.08,1.64,3.3,1.43,3.91-.61.06-.21.12-.37.18-.54.14-.4.28-.7.36-.78.11.04,1.13.62,2.38,1.35,1.29.75,2.57,1.37,2.84,1.37.66,0,1.75-1.01,1.75-1.63,0,0,0,0,0,0,.15-.17.31-.27.45-.29.05.01.09.02.15.05.33.14,1.42.33,2.41.42,1.78.17,1.82.15,2.22-.9.14-.37.25-.61.41-.77.01-.01.03-.02.05-.03.19-.11.47-.19.86-.25.05,0,.09-.01.15-.01,0,0,0,0,0,0,.13,0,.28,0,.44,0,0,0,0,0,.01,0,.06,0,.12,0,.19,0,.12,0,.22-.01.33-.02.05,0,.11,0,.16,0,1.57-.11,2.46-.76,2.46-1.83,0-.44.04-.61,2.37-.69l2.88.08c3.06.08,6.85,0,10.85-.23,5.18-.15,8.89-.52,15.47-1.41l3.97-.54.65-.08.07.06.8.87c.83.91,1.75,1.47,2.76,1.66.01,0,.03,0,.04,0,.95.17,1.97.03,3.08-.43,1.21-.51,2.74-1.92,4.33-3.88.97-1.17,1.93-2.51,2.85-4.02,1.15-1.84,2.25-3.86,3.19-5.93,4.88-10.74,8.04-24.54,8.5-34.31.14-1.71.2-3.02.11-3.3-.02-.06-.04-.22-.07-.43-.13-3.89-.84-6.76-2.23-7.9-.37-.31-.92-1.03-1.3-1.71-.02-.33-.25-.7-.57-1.01-.3-.44-.6-.61-1.11-.7-.14-.05-.29-.08-.43-.1-.02,0-.04,0-.06,0-.03,0-.07,0-.1,0,0,0-.01,0-.01,0-.01,0-.02,0-.03,0-.14,0-.29.02-.43.06-.6.06-.99.35-1.73,1.13-.22.23-.44.43-.65.6-.18.13-.36.26-.52.35-.18.09-.33.14-.41.1-.37-.14-.88.13-1.47.74-.4.37-.83.94-1.32,1.72-.6.92-1.25,2.07-1.91,3.43-.91,1.86-1.6,3.23-1.87,3.74-.1.17-.2.33-.25.4-.19-.09-1.13-.96-2.24-2.05-3.88-3.86-7.86-6.57-10.59-7.23-.62-.15-1.11-.73-1.73-2.02-.48-1-2.04-4.13-3.47-6.96-4.85-9.6-7.65-18.29-8.34-25.9-.11-1.23-.28-2.89-.38-3.69-.04-.31-.06-.56-.05-.78.05-.32.14-.6.26-.87.32-.54.99-1.26,2.3-2.63,1.48-1.55,3.22-3.52,3.87-4.37.65-.85,1.27-1.62,1.38-1.72.65-.57,2.26-3.15,3.84-5.96.8-1.35,1.51-2.67,2.12-3.95.67-1.32,1.21-2.5,1.5-3.3.85-2.34,1.49-6.49,1.42-9.14-.13-4.99-.91-8.26-4.08-17.1-3.08-8.59-3.96-11.7-5.87-20.75-1.43-6.77-2.46-10.18-4.68-15.44l-1.66-3.94c-.05-.5-.09-1.13-.11-1.95v-.49c-.02-.69-.03-1.44-.03-2.37,0-1.7-.04-3.56-.1-5.5-.04-1.81-.1-3.48-.17-5.08-.5-12.55-1.98-22.55-5.2-35.78-4.65-19.09-13.57-39.12-22.29-50.02-1.74-2.17-3.1-3.51-4.17-4.07-.31-.21-.57-.33-.79-.36h0Zm-77.44,187.46l2.77,5.54-5.2,21.14-11.09-5.54,13.51-21.14Z"/>
        <path id="path2700" class="cls-4" d="m135.16,301.09c-.08.02-.14.03-.2.03,0,0,0,0,0,0,.05,0,.12-.01.2-.03h0Z"/>
        <path id="path2698" class="cls-4" d="m149.68,300.82c-.23.13-.44.22-.65.28.21-.06.42-.15.65-.28Z"/>
        <path id="path2696" class="cls-4" d="m141.67,300.68c-.29.14-.53.22-.75.24.22-.03.46-.11.75-.24Z"/>
        <path id="path2694" class="cls-4" d="m139.93,300.63c.13.09.26.17.39.22-.13-.05-.26-.12-.39-.22Z"/>
        <path id="path2692" class="cls-4" d="m147.02,300.41c.2.19.39.34.57.46-.19-.12-.38-.27-.57-.46Z"/>
        <path id="path2690" class="cls-4" d="m175.1,300.41c.06.02.11.03.15.03.04,0,.08,0,.13-.01-.04,0-.09.01-.13.01-.03,0-.08,0-.15-.03h0Z"/>
        <path id="path2688" class="cls-4" d="m176.09,300.09c-.19.14-.39.25-.58.31.19-.06.39-.17.58-.31Z"/>
        <path id="path2686" class="cls-4" d="m128.45,300.03c-.22.02-.42.03-.61.02-.1,0-.19,0-.28-.02.09,0,.18.02.28.02.19,0,.39,0,.61-.03h0Z"/>
        <path id="path2684" class="cls-4" d="m129.51,299.81c-.25.07-.49.13-.72.17.23-.04.47-.1.72-.17Z"/>
        <path id="path2682" class="cls-4" d="m130.3,299.53c-.28.11-.54.2-.8.27.25-.07.52-.16.8-.27Z"/>
        <path id="path2680" class="cls-4" d="m138.05,299.19c-.06.03-.13.07-.21.12l-.39.35c-.38.35-.9.71-1.37.99.47-.28.99-.64,1.37-.99l.39-.35c.08-.05.15-.09.21-.12Z"/>
        <path id="path2678" class="cls-4" d="m138.22,299.13c-.05,0-.11.03-.17.06.06-.03.12-.05.17-.06.07,0,.13.03.2.06h0c-.07-.03-.13-.05-.2-.06h0Z"/>
        <path id="path2676" class="cls-4" d="m181.52,299.03c-.12.03-.28.04-.47.04.19,0,.35,0,.47-.04Z"/>
        <path id="path2674" class="cls-4" d="m181.74,298.94c-.06.04-.13.07-.21.09.08-.02.15-.05.21-.09Z"/>
        <path id="path2672" class="cls-4" d="m181.9,298.79s-.05.06-.08.08c.03-.02.05-.05.08-.08Z"/>
        <path id="path2670" class="cls-4" d="m177.11,298.68s-.08.07-.11.12c0,0,0,0,0,0,0,.04,0,.08-.01.12,0-.04.01-.08.01-.12,0,0,0,0,0,0,.04-.04.07-.08.11-.12h0Z"/>
        <path id="path2668" class="cls-4" d="m177.97,298.67c.47.11,1.24.23,1.96.3-.73-.07-1.49-.19-1.96-.3Z"/>
        <path id="path2666" class="cls-4" d="m132.44,298.63l-1.71.73c-.14.06-.29.12-.42.17.14-.05.28-.11.43-.17l1.71-.73h0Z"/>
        <path id="path2664" class="cls-4" d="m145.25,298.38l-1.7,1.15c-.32.22-.61.41-.88.58.26-.17.55-.36.88-.58l1.7-1.15h0Z"/>
        <path id="path2662" class="cls-4" d="m169.38,299.41c-.13.34-.28.62-.45.83.17-.21.33-.49.45-.83Z"/>
        <path id="path2660" class="cls-4" d="m169.88,297.99c-.06.14-.13.31-.2.51-.06.18-.11.33-.18.54-.04.13-.08.25-.12.36.04-.11.08-.23.12-.36.06-.21.12-.37.18-.54.07-.2.14-.37.2-.51Z"/>
        <path id="path2658" class="cls-4" d="m170.03,297.72s-.04.06-.07.1c.03-.05.05-.08.07-.1,0,0,0,0,0,0h0Z"/>
        <path id="path2656" class="cls-4" d="m182.43,297.61c-.06.13-.13.28-.2.47-.05.13-.09.25-.14.35.04-.1.09-.22.14-.35.07-.19.13-.34.2-.47Z"/>
        <path id="path2654" class="cls-4" d="m182.64,297.31c-.08.08-.15.18-.21.31.06-.13.13-.23.21-.31,0,0,0,0,0,0h0Z"/>
        <path id="path2652" class="cls-4" d="m183.55,297.03c-.3.05-.53.1-.7.17.18-.07.41-.13.7-.17Z"/>
        <path id="path2650" class="cls-4" d="m184.13,297.01c-.16,0-.3,0-.43,0,0,0,0,0,0,0-.05,0-.1,0-.15.01.05,0,.09-.01.15-.01,0,0,0,0,0,0,.13,0,.27,0,.43,0h0Z"/>
        <path id="path2648" class="cls-4" d="m185.38,296.92c-.17.03-.36.05-.56.07-.05,0-.11,0-.16,0,.05,0,.11,0,.16,0,.2-.01.38-.04.56-.07h0Z"/>
        <path id="path2646" class="cls-4" d="m151.23,299.61c-.29.28-.57.51-.82.72.26-.2.53-.44.82-.72Z"/>
        <path id="path2644" class="cls-4" d="m153.56,297.42c-.11.07-.23.15-.36.25l-1.51,1.5c-.16.16-.31.3-.46.44.15-.14.3-.28.46-.44l1.51-1.5c.13-.1.25-.18.36-.25Z"/>
        <path id="path2642" class="cls-4" d="m162.34,296.61l-1.81.92c-.49.25-.89.44-1.25.56l-.83.43-1.19-.35c-.52-.1-1.13-.26-1.95-.49l-1.44-.41c-.09.04-.19.09-.3.16.11-.07.21-.12.3-.16l1.44.41c.82.23,1.44.39,1.95.49l1.19.35.83-.43c.37-.12.76-.31,1.25-.56l1.81-.92h0Z"/>
        <path id="path2640" class="cls-4" d="m186.79,296.31c-.14.13-.31.24-.5.33.19-.09.36-.2.5-.33Z"/>
        <path id="path2638" class="cls-4" d="m83.75,296.45c.18.04.36.06.53.08-.17-.01-.34-.04-.53-.08Z"/>
        <path id="path2636" class="cls-4" d="m83.25,296.31c.17.06.34.1.5.14-.16-.03-.33-.08-.5-.14Z"/>
        <path id="path2634" class="cls-4" d="m94.41,296.75c.47.05,1.06.09,1.75.12-.69-.03-1.29-.07-1.75-.12Z"/>
        <path id="path2632" class="cls-4" d="m91.78,296.27c.2.04.41.08.62.12.52.12,1.02.23,1.41.29.16.03.36.05.6.08-.23-.02-.43-.05-.6-.08-.39-.06-.89-.17-1.41-.29-.22-.04-.42-.08-.62-.12Z"/>
        <path id="path2630" class="cls-4" d="m117.84,296.36c-1.5.1-3,.21-4.13.3-.67.05-1.44.1-2.29.14.84-.04,1.62-.09,2.29-.14,1.13-.09,2.63-.2,4.13-.3Z"/>
        <path id="path2628" class="cls-4" d="m126.18,295.88l-4.18.23c-1.15.06-2.66.16-4.16.26,1.5-.1,3.01-.2,4.16-.26l4.18-.23h0Z"/>
        <path id="path2626" class="cls-4" d="m81.59,295.53c.32.2.64.36.96.51-.32-.14-.64-.31-.96-.51Z"/>
        <path id="path2624" class="cls-4" d="m187.3,295s0,.1,0,.15c0,.07,0,.13-.01.2,0-.06.01-.13.01-.2,0-.06,0-.11,0-.15Z"/>
        <path id="path2622" class="cls-4" d="m85.22,296.41c-.15.05-.3.08-.46.1.16-.02.31-.05.46-.1Z"/>
        <path id="path2620" class="cls-4" d="m86.29,295.78c-.35.31-.69.52-1.07.64.37-.12.72-.33,1.07-.64Z"/>
        <path id="path2618" class="cls-4" d="m87.22,294.86l-.72.72c-.07.07-.14.13-.21.2.07-.06.14-.13.21-.19l.72-.72,2.27.74c.05.02.12.04.18.05,0,0,0,0,0,0-.06-.02-.12-.04-.18-.05l-2.27-.74Z"/>
        <path id="path2616" class="cls-4" d="m227.13,294.9c.47.09.97.1,1.48.02-.51.07-1.01.06-1.48-.02Z"/>
        <path id="path2614" class="cls-4" d="m226.72,294.8c.12.04.25.07.37.09.01,0,.03,0,.04,0-.01,0-.03,0-.04,0-.13-.02-.25-.05-.37-.09h0Z"/>
        <path id="path2612" class="cls-4" d="m187.42,294.76s-.04.03-.05.05c.02-.02.03-.04.05-.05Z"/>
        <path id="path2610" class="cls-4" d="m188.3,294.54c-.5.05-.75.12-.88.22.13-.1.38-.17.88-.22Z"/>
        <path id="path2608" class="cls-4" d="m189.66,294.47c-.29,0-.55.02-.77.03.22-.01.48-.02.77-.03l2.88.08c1.53.04,3.24.04,5.07,0-1.83.04-3.54.04-5.07,0l-2.88-.08Z"/>
        <path id="path2606" class="cls-4" d="m230.21,294.47c-.28.12-.55.21-.81.29.27-.08.54-.17.81-.29Z"/>
        <path id="path2604" class="cls-4" d="m205.26,294.25c-.61.03-1.23.05-1.88.07-1,.05-1.99.1-2.95.14.97-.04,1.95-.08,2.95-.14.65-.02,1.27-.04,1.88-.07Z"/>
        <path id="path2602" class="cls-4" d="m224.98,293.85c.33.28.67.5,1.02.67-.35-.17-.69-.4-1.02-.67Z"/>
        <path id="path2600" class="cls-4" d="m79.13,293.52c.17.17.33.34.5.49-.17-.16-.33-.32-.5-.49Z"/>
        <path id="path2598" class="cls-4" d="m214.38,293.49c-2.71.32-4.97.54-7.33.67,2.36-.14,4.62-.35,7.33-.67Z"/>
        <path id="path2596" class="cls-4" d="m232.23,293.07c-.37.33-.72.62-1.06.85.34-.23.69-.52,1.06-.85Z"/>
        <path id="path2594" class="cls-4" d="m223.47,292.29l-.65.08-3.97.54c-.82.11-1.6.21-2.34.31.74-.1,1.52-.2,2.34-.31l3.97-.54.65-.08h0Z"/>
        <path id="path2592" class="cls-4" d="m235.26,289.68c-.24.31-.48.62-.73.91-.2.24-.4.48-.59.71.2-.23.39-.46.59-.71.24-.29.48-.59.73-.91Z"/>
        <path id="path2590" class="cls-4" d="m248.25,254.29c-.22,1.42-.48,2.87-.77,4.35.29-1.47.55-2.93.77-4.35Z"/>
        <path id="path2588" class="cls-4" d="m249.13,242.59c.03.2.05.37.07.43.04.14.05.54.03,1.11.02-.58.01-.97-.03-1.11-.02-.06-.04-.22-.07-.43h0Z"/>
        <path id="path2586" class="cls-4" d="m74,239.9c.09.11.17.2.24.27,0,0,0,0,0,0-.07-.08-.15-.17-.24-.27h0Z"/>
        <path id="path2584" class="cls-4" d="m248.75,238.77c.06.33.12.67.16,1.03-.05-.36-.1-.7-.16-1.03Z"/>
        <path id="path2582" class="cls-4" d="m72.75,238.2c.11.14.23.3.31.42.23.34.45.65.66.92-.2-.27-.43-.58-.66-.92-.08-.12-.2-.28-.31-.42Z"/>
        <path id="path2580" class="cls-4" d="m247.81,235.86c.13.25.25.51.37.81-.11-.29-.23-.56-.37-.81Z"/>
        <path id="path2578" class="cls-4" d="m247.15,234.92c.16.17.32.37.46.59-.14-.22-.3-.42-.46-.59Z"/>
        <path id="path2576" class="cls-4" d="m218.89,233.39c.07.1.15.19.23.26-.07-.08-.15-.17-.23-.26Z"/>
        <path id="path2574" class="cls-4" d="m68.26,233.17c.25.24.51.52.81.83.1.1.2.21.3.31.17.18.35.36.52.55.65.7,1.31,1.44,1.87,2.1-.56-.66-1.22-1.4-1.87-2.1-.17-.19-.35-.37-.52-.55-.1-.1-.2-.22-.3-.31-.3-.31-.57-.58-.81-.83Z"/>
        <path id="path2572" class="cls-4" d="m245.55,232.75c.02.08.04.15.05.23,0-.07-.02-.15-.05-.23Z"/>
        <path id="path2570" class="cls-4" d="m84.76,225.76c.09.07.18.15.26.23-.08-.08-.17-.16-.26-.23Z"/>
        <path id="path2568" class="cls-4" d="m73.13,221.26c3.29,1.2,6.52,2.4,8.72,3.25-2.2-.85-5.43-2.05-8.72-3.25Z"/>
        <path id="path2566" class="cls-4" d="m64.04,217.92c.49.2,1.07.43,1.77.69-.7-.26-1.28-.49-1.77-.69Z"/>
        <path id="path2564" class="cls-4" d="m62.85,217.37c.31.16.7.35,1.19.55-.49-.2-.88-.39-1.19-.55Z"/>
        <path id="path2562" class="cls-4" d="m210.92,216.91c.39.97.8,1.94,1.23,2.93-.44-.99-.84-1.97-1.23-2.93Z"/>
        <path id="path2560" class="cls-4" d="m61.84,216.7s.07.06.12.1c-.05-.04-.09-.07-.12-.1Z"/>
        <path id="path2558" class="cls-4" d="m206.29,193.69c-.05.07-.1.15-.14.21-.06.13-.11.27-.16.41.04-.14.1-.28.16-.41.04-.07.09-.14.14-.21Z"/>
        <path id="path2556" class="cls-4" d="m209.59,190.05c-.38.42-.77.83-1.14,1.22-.33.34-.61.65-.87.92.25-.27.54-.57.87-.92.37-.39.75-.8,1.14-1.22Z"/>
        <path id="path2552" class="cls-4" d="m213.22,185.76c-.25.31-.57.72-.89,1.14-.16.21-.39.49-.67.82.28-.33.51-.61.67-.82.33-.42.64-.83.89-1.14Z"/>
        <path id="path2550" class="cls-4" d="m213.99,184.88c-.11.13-.21.23-.29.31-.05.05-.23.26-.48.57.25-.31.43-.53.49-.57.08-.07.18-.18.29-.31Z"/>
        <path id="path2548" class="cls-4" d="m214.79,183.79c-.31.46-.58.83-.8,1.09.22-.26.49-.63.8-1.09Z"/>
        <path id="path2546" class="cls-4" d="m70.33,181.1c.45.07.8.15,1.03.22-.23-.08-.58-.15-1.03-.22Z"/>
        <path id="path2544" class="cls-4" d="m60.84,180.37c1.19.05,2.15.11,2.79.16-.65-.05-1.61-.11-2.79-.16Z"/>
        <path id="path2542" class="cls-4" d="m51.65,180.07c3.51.09,6.8.19,9.18.3-2.38-.11-5.67-.21-9.18-.3Z"/>
        <path id="path2540" class="cls-4" d="m33.68,179.85c-.37,0-.68.02-.93.03-.79.04-1.46.07-2.03.1.58-.03,1.25-.06,2.03-.1.25-.01.56-.02.93-.03h0Z"/>
        <path id="path2538" class="cls-4" d="m34.93,179.84c-.46,0-.88,0-1.24.01.37,0,.78-.01,1.24-.01,1.8.03,3.75.05,5.87.06,1.89.01,3.72.03,5.5.06-1.79-.03-3.61-.05-5.5-.06-2.12-.01-4.07-.03-5.87-.06h0Z"/>
        <path id="path2536" class="cls-4" d="m27.1,179.48c.05.06.09.1.12.12.02.01.08.02.17.03.06.04.12.07.18.1-.06-.03-.12-.06-.18-.1-.09,0-.16-.02-.17-.03-.03-.02-.07-.06-.12-.11Z"/>
        <path id="path2534" class="cls-4" d="m26.46,178.71c.16.21.31.4.47.55-.16-.15-.31-.33-.47-.55Z"/>
        <path id="path2532" class="cls-4" d="m218.14,178.22c-.19.33-.38.67-.58,1.01-.4.7-.79,1.39-1.18,2.03.38-.65.78-1.33,1.18-2.03.2-.34.4-.67.58-1.01Z"/>
        <path id="path2530" class="cls-4" d="m219.19,176.24c-.33.65-.68,1.31-1.06,1.98.38-.67.73-1.33,1.06-1.98Z"/>
        <path id="path2528" class="cls-4" d="m220.14,174.32c-.15.31-.31.63-.48.96-.15.32-.31.64-.47.96.16-.32.32-.65.47-.96.17-.33.33-.65.48-.96Z"/>
        <path id="path2526" class="cls-4" d="m220.9,172.64c-.2.49-.46,1.05-.76,1.67.3-.62.56-1.18.76-1.67Z"/>
        <path id="path2524" class="cls-4" d="m221.47,171.02c-.1.34-.2.66-.31.96-.07.2-.16.42-.26.67.1-.24.19-.47.26-.67.11-.29.21-.61.31-.96Z"/>
        <path id="path2522" class="cls-4" d="m222.56,161.95c.01.29.02.58.03.89,0,.33,0,.69,0,1.06.01-.37.02-.73,0-1.06,0-.3-.02-.6-.03-.89h0Z"/>
        <path id="path2520" class="cls-4" d="m222.35,159.39c.07.54.12,1.09.15,1.64-.04-.56-.09-1.1-.15-1.64Z"/>
        <path id="path2512" class="cls-4" d="m221.22,153.94c.18.63.33,1.22.47,1.79-.14-.57-.29-1.17-.47-1.79Z"/>
        <path id="path2504" class="cls-1" d="m91.11,138.85c-.05.23-.11.4-.17.52.06-.12.12-.29.17-.52Z"/>
        <path id="path2500" class="cls-4" d="m4.95,134.31c.92,2.34,1.91,4.75,2.94,7.2-1.03-2.45-2.02-4.86-2.94-7.2Z"/>
        <path id="path2492" class="cls-1" d="m212.12,122.59c.17.75.34,1.54.52,2.39.24,1.13.46,2.17.67,3.14-.21-.97-.44-2.01-.67-3.14-.18-.85-.35-1.64-.52-2.39Z"/>
        <path id="path2486" class="cls-4" d="m77.12,109.57c2.17.87,4.33,1.72,6.3,2.47-1.98-.76-4.13-1.61-6.3-2.47Z"/>
        <path id="path2484" class="cls-1" d="m206.23,104.76c.02.32.04.61.06.85l1.66,3.94-1.66-3.94c-.03-.25-.05-.53-.06-.85Z"/>
        <path id="path2482" class="cls-4" d="m206.06,95.3c.06,1.93.1,3.8.1,5.5,0-1.7-.04-3.56-.1-5.5Z"/>
        <path id="path2480" class="cls-4" d="m174.24,85.31c.07.29.14.56.21.79,0,.02,0,.03.01.05,0-.02,0-.03-.01-.05-.07-.23-.14-.49-.21-.79h0Z"/>
        <path id="path2478" class="cls-4" d="m22.12,80.53c.71.52,1.5,1.08,2.36,1.69-.86-.6-1.65-1.17-2.36-1.69Z"/>
        <path id="path2476" class="cls-4" d="m200.68,54.44c.36,1.46.69,2.88,1,4.28-.31-1.39-.65-2.81-1-4.28Z"/>
        <path id="path2474" class="cls-4" d="m172.92,76.99c.44,3.67.89,6.55,1.32,8.32-.43-1.77-.88-4.65-1.32-8.32Z"/>
        <path id="path2472" class="cls-4" d="m171.85,66.37c.34,3.96.7,7.56,1.07,10.62-.37-3.06-.73-6.66-1.07-10.62Z"/>
        <path id="path2470" class="cls-4" d="m170.66,48.78c.07,1.29.14,2.58.21,3.85.05.93.09,1.78.15,2.55.02.36.05.74.08,1.1.23,3.52.48,6.92.75,10.09-.27-3.17-.52-6.56-.75-10.09-.03-.37-.06-.74-.08-1.1-.05-.76-.1-1.62-.15-2.55-.07-1.27-.15-2.56-.21-3.85Z"/>
        <path id="path2468" class="cls-4" d="m198.74,47.26c.3,1.03.6,2.07.88,3.1-.28-1.03-.57-2.07-.88-3.1Z"/>
        <path id="path2466" class="cls-4" d="m197.78,44.1c.33,1.05.66,2.11.97,3.16-.31-1.06-.63-2.11-.97-3.16Z"/>
        <path id="path2464" class="cls-4" d="m195.2,36.58c.59,1.61,1.16,3.23,1.71,4.86-.55-1.63-1.11-3.25-1.71-4.86Z"/>
        <path id="path2460" class="cls-4" d="m191.06,26.37c.73,1.64,1.45,3.32,2.14,5.02-.69-1.71-1.41-3.38-2.14-5.02Z"/>
        <path id="path2458" class="cls-4" d="m189.57,23.13c.5,1.06,1,2.14,1.49,3.23-.49-1.09-.98-2.17-1.49-3.23Z"/>
        <path id="path2456" class="cls-4" d="m188.05,20.01c.52,1.02,1.02,2.06,1.53,3.12-.5-1.06-1.01-2.1-1.53-3.12Z"/>
        <path id="path2454" class="cls-4" d="m183.29,11.46c.54.87,1.08,1.77,1.61,2.7-.53-.93-1.07-1.83-1.61-2.7Z"/>
        <path id="path2452" class="cls-4" d="m180.84,7.73c.82,1.17,1.63,2.42,2.44,3.73-.81-1.31-1.62-2.56-2.44-3.73Z"/>
        <path id="path2450" class="cls-4" d="m177.76,3.65c.21.25.42.5.63.78.27.34.54.69.82,1.05-.27-.36-.54-.71-.82-1.05-.22-.27-.43-.53-.63-.78Z"/>
        <path id="path2448" class="cls-4" d="m176.06,1.79c.52.51,1.08,1.13,1.7,1.86-.62-.74-1.18-1.36-1.7-1.86Z"/>
        <path id="path2446" class="cls-4" d="m170.23,33.67c.05,4.69.13,8.86.24,11.22.06,1.3.12,2.6.19,3.9-.07-1.29-.13-2.59-.19-3.9-.11-2.35-.19-6.53-.24-11.22Z"/>
        <path id="path2444" class="cls-4" d="m170.2,12.79c-.03,1.82-.04,4.14-.05,6.69-.03,2.92-.02,6.08.03,9.37.01,1.63.03,3.25.04,4.82-.02-1.56-.03-3.19-.04-4.82-.05-3.3-.06-6.45-.03-9.37,0-2.55.02-4.87.04-6.69Z"/>
        <path id="path2442" class="cls-4" d="m170.28,9.62c-.03.71-.06,1.8-.08,3.17.02-1.37.05-2.46.08-3.17Z"/>
        <path id="path2389" class="cls-4" d="m172.23.43c-.77.7-1.18,1.95-1.57,5.19,0,.03,0,.06-.01.09-.11.94-.22,2.02-.34,3.33-.01.15-.02.34-.04.58.01-.24.02-.43.04-.58.12-1.31.23-2.39.34-3.33,0-.03,0-.06.01-.09.39-3.25.8-4.5,1.57-5.19,0,0,0,0,0,0h0Z"/>
        <g id="g2739">
          <path id="path2462" class="cls-4" d="m172.88,29.1v2.61c0,.62.02,1.39.03,2.22l.05,1.99c.24,8.58,1.01,23.23,1.45,26.62.07.57.23,2.34.35,3.94.29,3.83,1.75,15.2,2.22,17.3.56,2.5.82,2.78,3.34,3.59,2.25.73,4.04,1.59,5,2.31.31.21.51.39.56.52.36.45.23.79-.55.91-.41.06-1.57-.14-2.57-.44-2.9-.88-11.54-2.54-14.71-2.83-.51-.05-1.06-.09-1.62-.12-2.11-.09-4.55-.11-7.79-.11-2.04,0-3.85.03-5.58.08-3.95.17-7.81.48-10.89.92-9.6,1.35-12.68,2.01-19.72,4.18-1.69.52-2.86.87-3.62,1.16-.21.08-.4.16-.56.24-1.12.54-.57.96.67,2.27.07.07.12.14.19.21.37.36.7.73.97,1.09,1.01,1.21,1.38,1.98,1.14,2.36-.4.65-1.28.32-3.03-1.15-5.21-4.39-19.53-12.08-30.76-16.52-13.96-5.53-28.37-9.53-43.22-12.02-3.99-.67-4.05-.86-4.24,1.7-.03.93-.05,2.02-.05,3.23s0,2.26.03,3.08c.38,3.67,1.46,7.09,3.21,10.02l.7,1.17c.43.61.84,1.06,1.18,1.27.23.14.8.45,1.51.82l7.38,3.68c5.19,2.58,9.51,4.7,9.6,4.7s1.38.56,2.86,1.25c10.07,4.68,29.52,11.81,34.86,12.78,2.14.39,2.56.54,2.63,1.18,0,.02.01.05.01.07,0,.02,0,.04,0,.06,0,.04,0,.08,0,.12,0,.45-.26.68-.77.72-.28.02-.68.03-1.13.02-.44.02-.96,0-1.55-.05-.88-.04-1.7-.11-2.16-.18-.22-.01-.4-.02-.55-.02-.65.33-1.26,2.49-2.2,7.64-.8,4.4-1.32,9.61-1.5,14.53-.02,2.87.06,6.32.22,10.58.03.28.06.57.09.84.14,1.15.42,5.88.63,10.52.59,13.45,1.35,18.53,3.6,24.29.96,2.45,2.09,4.69,3.41,6.74,1.25,1.91,2.69,3.69,4.32,5.33,1.23,1.23,2.6,2.42,4.06,3.53,1.98,1.47,4.18,2.81,6.64,4.07,1.48.75,3.57,1.65,4.65,1.98,1.02.32,1.68.65,1.95.97.12.14.18.28.18.43,0,.06-.01.11-.03.16-.06.86-1.27.86-4.43.07-5.53-1.36-13.23-6.6-17.36-11.81l-1.37-1.73c-.14-.09-.25-.13-.35-.08l-.2,1.3c-.13.88-.4,2.98-.6,4.68-.71,6.24-5.4,22.93-8.72,31.02-.37.89-.68,1.72-.82,2.16-.03.13-.05.25-.07.35.08.16.69.42,1.44.62,2.75.72,6.45,2.74,8.01,4.36,1.54,1.61,1.88,2.54,1.22,2.63-.38.17-1.1-.04-1.84-.57-.34-.17-.72-.38-1.14-.64-2.19-1.33-3.47-1.98-5.03-2.45-.09-.03-.19-.05-.28-.08-.47-.14-.97-.26-1.53-.38-4.84-1.06-8.98-.36-11.81,1.92-.23.21-.47.43-.73.69-.21.2-.41.41-.59.61-.2.24-.39.48-.57.74-.58.84-.82,1.21-.8,1.56.06.18.15.4.26.65.03.05.06.1.1.16,1.41,2.26,3.01,5.61,3.96,8.3,1.4,3.98,1.53,5.47.47,5.47-.43,0-.94-.66-1.63-2.14-1.7-3.63-4.02-7.96-6.01-11.36-1.72-2.89-3.29-5.27-3.83-5.7-.1-.06-.16-.05-.18.05-.08.4.8,4.06,1.87,7.79.29.85.43,1.44.43,1.84,0,.31-.08.51-.27.69-.36.35-.65.19-1.53-.82-1.79-2.06-3.66-8.07-3.66-11.76,0-.64-.09-1.15-.26-1.51-.07-.14-.14-.25-.22-.33-.15-.15-.25-.24-.33-.27-.06.02-.11.06-.15.13-.05.14-.06.48-.06.93.02.37.05.83.1,1.45.22,2.92.8,5.57,2,9.28.39,1.19.61,2.38.51,2.66-.53,1.39-2.34-.34-3.6-3.44-.65-1.61-.7-1.65-.71-.63-.05,3.01,1.76,11.36,4.32,19.84,4.15,13.8,10.98,26.39,15.63,28.84.54.28.78.38,1.02.22.07-.07.16-.16.25-.26.08-.11.17-.23.28-.4.52-.8.63-1.92.72-7.87.08-5.2.22-6.98.55-7.1,1.14-.44,1.93,1.41,2.25,5.11.25,1.84.37,4,.29,6.14l-.11,2.87.13.08,1.06.45c2.61,1.1,3.62,1.34,8.99,1.39,1.22,0,2.41.01,4.22.01,7.22-.01,14.62-.31,16.65-.69.29-.05,2.25-.21,4.36-.35,3.12-.2,3.85-.35,3.96-.81.15-.64-.12-1.13-4.38-8.1-11.29-18.44-18.49-33.72-21.02-44.59-.42-1.81-.7-3.6-.84-5.12-.13-1.03-.21-1.93-.22-2.62-.05-.66-.03-1.02.09-1.19.04-.16.1-.28.17-.32.11-.07.23-.09.35-.08.03-.02.06-.04.1-.04.38-.07.62.15.78.7.11.19.18.41.18.63,0,.03.01.1.02.16,1.1,4.39,4.13,14.21,5.35,17.3,1.2,3.01,3.53,8.38,4.9,11.38.37.76.75,1.53,1.14,2.31.24.4.97,1.75,1.76,3.29.88,1.7,1.87,3.55,2.21,4.12.34.57,1.13,1.96,1.75,3.09.62,1.13,1.4,2.44,1.72,2.92.32.47.98,1.55,1.45,2.4.47.85,2.35,3.95,4.17,6.9,1.77,2.87,2.84,4.83,3.17,5.82.07.19.13.34.13.41,0,.02,0,.04,0,.06,0,.02,0,.05,0,.06,0,.54-.46,1.95-1.01,3.13-.48,1.01-.8,1.85-.8,2.07.15-.01.45-.12.82-.28.28-.14.6-.31.94-.51,1.2-.69,2-.95,2.61-.79.41.08.7.36.98.87.05.09.1.18.15.28l.16.31c.16.31.28.53.37.67.12.04.26.02.41-.05l1.09-.93c.29-.25.58-.46.86-.65.01,0,.02-.02.03-.02.16-.11.32-.22.46-.3.21-.14.38-.24.44-.24.01,0,.04.01.06.02.03,0,.07-.02.1-.02.15,0,.39.15.64.38.28.21.56.54.84,1.02.06.11.13.2.19.3.31.4.6.69.73.7.1-.02.38-.16.76-.4.39-.25.88-.59,1.38-.97.86-.65,1.8-1.19,2.29-1.33.03-.01.05-.02.08-.02.02,0,.04-.02.04-.02h0s0,0,0,0c0,0,.01,0,.02,0,0,0,.02,0,.02,0,.01,0,.03,0,.04,0,.43,0,1.09.59,1.75,1.55.9,1.3,1.27,1.64,2.23.82.1-.09.21-.19.32-.3.31-.3.67-.67,1.12-1.17.8-.87,1.42-1.36,2.12-1.52.07-.03.13-.05.17-.05.01,0,.05,0,.07.01.64-.08,1.36.1,2.32.5.39.16.75.3,1.02.4.16.02.3.02.39-.01-.07-.21-.3-.7-.62-1.29-.29-.38-.52-.77-.69-1.2l-.39-.58v-.14s-.34-.6-.34-.6l-.09-6.86c-.12-9.37-1.24-21.27-3.27-34.66-.69-4.19-1.47-8.36-2.33-12.42-.29-1.29-.62-2.72-1.03-4.47-.34-1.44-.59-2.58-.78-3.52-.27-1.12-.43-1.86-.47-2.3,0,0,0,0,0,0,0,0,0,0,0,0-.09-.39-.06-.61.1-.71.01-.05.03-.08.05-.11.43-.43.83-.24,1.48.88.29.45.6,1.06.91,1.81,0,0,0,0,0,.01,1.32,2.85,2.38,6.75,3.54,12.94.42,2.26.89,4.25,1.04,4.41.15.16.37-.45.49-1.37.28-2.09,2.42-9.12,3.32-10.87.4-.78.77-1.17,1.12-1.2.27-.14.51-.06.71.27.02.03,0,.21-.02.45,0,.15-.01.33-.04.54-.05.93-.35,2.52-.94,5.19-3.39,15.28-3.48,16.08-2.62,22.86.91,7.18,1.73,18.43,1.73,23.87,0,4.05.07,4.5.93,6.26.63,1.27.98,1.81,1.42,1.83.17-.06.4-.15.67-.26.08-.06.17-.11.26-.18.44-.34.83-.51,1.22-.51l.36-.17.03-.02h0s0,0,0,0l.37.41c.48.28,1,.81,1.65,1.65.42.54.83,1.02,1.15,1.36.29.26.51.41.68.46.1-.15.17-.53.17-.98,0-1.38.56-2.38,1.33-2.38.34,0,1.68.69,2.99,1.54s2.46,1.54,2.56,1.54c.1,0,.18-.8.17-1.79,0-.06,0-.11,0-.17,0-.19,0-.37,0-.54.03-.81.14-1.06.51-1.16.11-.07.24-.11.39-.11.03,0,.08.03.13.08.36.07.63.39.95,1.07.36.77.94,1.32,1.65,1.56.44.15.84.25,1.06.26.01,0,.03,0,.04,0,.07-.04.11-.12.11-.24-.07-.28-.29-.8-.58-1.37-.67-1.32-.69-1.5-.2-1.99.49-.49.66-.43,1.87.75.7.69,1.12,1.01,1.59,1.14h0c.07.02.14.03.21.04.04,0,.07.01.11.02,0,0,0,0,0,0,.2.02.41.01.66,0l1.23-.11-.04-.06-.42-.56-.87-1.05c-.45-.54-.84-1.12-1.09-1.6-.03-.06-.06-.12-.09-.17-.12-.25-.2-.46-.2-.59,0-.01,0-.04,0-.05,0-.02,0-.04,0-.05,0-.33.37-1.21,1.08-2.61.84-1.85,1.94-4.03,2.36-4.57,1.38-1.77,8.26-15.42,10.28-20.41,5.06-12.46,7.13-22.1,8.39-39.1.19-2.49.33-4.17.47-5.34.07-.84.15-1.38.27-1.6.24-.82.55-.67,1.09-.14.85.85.99,9.02.27,15.67-1.48,13.68-4.43,24.52-10.62,37.65-.82,1.83-1.53,3.34-1.93,4.02-.06.11-.22.4-.32.58-1.35,2.66-2.82,5.42-4.44,8.34-1.83,3.3-3.37,6.2-3.72,6.99-.02.06-.02.07-.04.1-.02.06-.02.09-.03.14.02.2.24.63.51.99.4.53,2.38.86,5.35,1.01,1.39.02,3.17.03,5.59.03,1.64,0,3.27-.02,4.84-.05,5.03-.19,10.71-.61,16.2-1.24,1.87-.23,3.49-.44,4.45-.58,1-.2,1.3-.47,1.44-1.23,0-.05,0-.09,0-.14,0-.24.03-.46.09-.66.08-.63.23-.84.65-.89.2-.09.41-.1.61.02.42.09.62.39.83,1.17.45,1.66,1.75,3.56,2.66,3.97.06.03.13.05.19.07.02,0,.04.01.06.02,0,0,0,0,0,0,1.22.17,3.12-1.31,5.24-4.09,6.66-8.73,12.15-25.68,13.11-40.21.02-.42.04-.82.05-1.26l.13-4.35c0-.08,0-.13,0-.2-.02-.1-.04-.19-.05-.27l-.42,2.29c-.28,2.22-.77,4.3-1.31,5.81-.23.7-.47,1.22-.71,1.57-.3.51-.61.8-.88.8-.12,0-.21-.05-.28-.17-.2,0-.32-.07-.34-.49-.04-.37,0-1.01.1-2.17.07-.85.15-1.66.22-2.35.08-1.17.19-2.35.3-3.16.39-2.93.44-9.13.09-9.31-.13,0-.29.1-.45.27-.39.56-.66,1.94-.82,4.19-.29,4.1-1.07,8.08-1.94,10.46-.07.2-.15.39-.22.57,0,0,0,0,0,0-.42,1.02-.87,1.64-1.28,1.64,0,0,0,0,0,0-.33,0-.53-.09-.64-.38-.2-.5-.1-1.58.25-3.77.28-1.77.6-4.69.71-6.48l.18-2.98c-.08.07-.17.17-.28.32l-1.08,2.15c-3.36,6.67-7.04,17.01-9.24,25.9-1.07,4.33-1.32,4.97-1.92,4.97,0,0-.01,0-.02,0,0,0,0,0-.01,0-.15,0-.27-.03-.36-.09-.02-.02-.05-.04-.07-.06-.1-.1-.17-.28-.22-.56-.16-.5-.19-1.29-.12-2.3.08-3.75,1.6-9.54,4.65-17.73l1.37-3.66c.07-.49-.22-.89-1.25-2.02l-2.39-2.29c-4.35-4.16-7.57-6.05-10.96-6.26-.22,0-.44,0-.69-.01-.32,0-.64.01-.97.04-.42.04-.84.09-1.28.17-2.31.45-5.49,1.73-6.47,2.62-.54.49-.65.53-1,.08-.13-.05-.21-.16-.23-.32-.34-.53-.15-.8,1.41-2.29.06-.06.12-.11.18-.16.01-.01.03-.02.04-.04.01-.01.03-.02.04-.04,1.71-1.57,3.41-2.33,6.27-2.8.71-.12,1.29-.37,1.29-.56s-1.13-2.54-2.51-5.22c-5.41-10.48-8.23-18.78-9.17-26.99-.23-1.98-.51-3.71-.62-3.84-.12-.13-1.52.85-3.13,2.18-1.6,1.33-3.54,2.82-4.29,3.32-.76.5-1.95,1.35-2.65,1.89-2.07,1.59-7.56,4.49-10.19,5.39-2.04.7-2.49.75-2.74.35-.06-.1-.1-.22-.12-.33-.09-.14-.13-.28-.08-.36,0-.01.03-.03.06-.05.04-.35.22-.65.49-.65.35,0,6.5-3.66,9.41-5.6,4.79-3.19,10.57-7.91,14.67-11.89,1.21-1.23,2.42-2.51,3.53-3.74,1.73-2.03,3.93-4.86,5.22-6.66.34-.5.66-.98.95-1.44.03-.07.07-.13.08-.17.1-.28.46-.92.8-1.41l.55-.79s.04-.08.05-.11l-1.67-.2c-2.45-.29-5.32-1.82-7.09-3.8-2.39-2.66-3.53-5.86-3.56-10.01,0-.09,0-.17,0-.26,0-.02,0-.04,0-.06,0-.07,0-.13,0-.2,0-.11,0-.22,0-.34.09-3.25.85-5.74,2.35-7.72.28-.4.6-.78.93-1.14,0,0,.01-.02.02-.02.03-.03.06-.06.09-.09,2.21-2.4,4.65-3.45,8.01-3.5,1-.01,1.83-.11,1.95-.22,0-.02.01-.04.02-.06-.02-.18-.41-1.28-.88-2.54-2.39-6.31-4.14-12.25-5.28-17.96-.97-4.86-2.23-9.89-3.32-13.21-1.17-3.6-3.91-9.41-5.43-11.53-.66-.93-1.21-1.76-1.21-1.85s-.85-1.28-1.89-2.63c-1.24-1.61-1.83-2.62-1.85-3.17-.06-.36.1-.55.49-.55.02,0,.04,0,.06,0,.02,0,.03,0,.04,0,0,0,.02,0,.03,0,.05,0,.11,0,.17,0,.59,0,1.52.75,3.27,2.65l2.44,2.65-.05-4.19-.09-3.18c-.03-.93-.06-1.85-.1-2.78-.47-8.61-1.76-19.66-3.26-27.43-.08-.43-.17-.85-.26-1.28-1-4.79-3.43-13.86-5.15-19.18-1.86-5.74-1.88-5.77-5.91-8.5-4.56-3.09-8.38-4.5-13.26-4.88l-1.23-.1h-1.25Zm21.25,90.42h0c4.21.05,8.23,2.6,10.26,6.96,1.27,2.73,1.26,6.9-.03,9.65-1.09,2.32-3.31,4.52-5.57,5.52-2.11.93-5.69,1.19-7.43.54-3.57-1.33-5.95-3.49-7.44-6.73-1.18-2.57-1.23-6.58-.11-9.08,1.2-2.69,2.91-4.5,5.4-5.73,1.6-.79,3.28-1.15,4.92-1.13h0Zm-189.84.93c-.57,0-.91.05-.95.13-.18.3,1.05,3.78,4.1,11.6,1.85,4.75,2.99,7.45,6.79,16.12,2.77,6.31,8.85,18.64,10.66,21.62.84,1.38,1.53,2.61,1.53,2.72,0,.02.04.09.07.15.39.67.72,1.2.97,1.61.08.12.15.24.24.36l.61.93.56.83,2.9.04,2.19-.1c5.19-.25,23.39.26,34.28.95.4.03.63.05.99.07,4.01.2,5.11.32,5.51.73.08.05.13.11.17.18.28.44-.05,1.94-1.4,6.35-3.46,11.3-7.43,25.19-8.3,28.91-.13.6-.16.92-.13,1.02.2.13,1.62.67,3.29,1.25,10.74,3.74,17.18,6.21,18.62,7.16.07.05.15.12.23.21l.45.21.28.9c.15.3.29.61.39.93.32.95.68,1.73.8,1.73s.81-1.66,1.52-3.69c1.28-3.66,2.42-7.64,2.23-7.83-.05-.05-3.02-1.5-6.59-3.22-3.57-1.72-6.56-3.19-6.64-3.27-.45-.45,0-2.01,1.03-3.64.65-1.02,1.28-2.08,1.41-2.37.26-.57,2.53-3.84,6.42-9.21,1.41-1.95,2.8-3.89,3.08-4.3.28-.41,1.26-1.78,2.16-3.04l1.26-1.76c.22-.35.33-.58.34-.68l-.64-2.18c-1.38-4.72-2.38-11.57-2.43-16.57-.01-1.41-.18-5.27-.36-8.58-.19-3.3-.44-7.9-.56-10.23l-.21-3.93-.02-.3-1.95-.98c-1.07-.54-3.87-1.78-6.21-2.75-18.8-7.81-36.11-12.71-56.22-15.91-6.51-1.03-17.69-2.09-21.82-2.16-.24,0-.45,0-.64,0h0Zm122.21,2.81h0c.23,0,.46,0,.69,0,1.97.03,2.77.21,4.27.92,1.65.78,3.16,2.03,4.34,3.57.43.54.77,1.06,1.05,1.62.1.19.21.39.3.58.75,1.59.89,2.35.88,4.8-.01,2.5-.16,3.2-1,4.92-1.13,2.31-3.32,4.41-5.81,5.58-2.45,1.15-6.81,1.15-9.26,0-3.02-1.42-5.22-3.92-6.26-6.78-.12-.3-.21-.58-.28-.86-.52-1.88-.55-3.88,0-5.82,1.02-3.57,3.06-6.02,6.36-7.63,1.56-.76,2.31-.91,4.64-.92.03,0,.06,0,.09,0h0Zm42.99,14.34h0c1.3.04,2.02.43,2.02,1.12,0,.83-.96,2.46-1.79,3.04-.29.21-.55.34-.81.41-.04.01-.08.02-.12.03-.03,0-.05.01-.08.01-.05,0-.11.01-.16.01-.46.03-.97-.14-1.71-.51-.58-.29-1.32-.97-1.64-1.51-.36-.6-.47-.85-.35-1.12,0-.02,0-.03.01-.05.06-.17.2-.32.41-.46,0,0,0,0,.01-.01.43-.43,1.39-.75,2.72-.9.55-.06,1.05-.09,1.48-.07h0Zm-.35,9.09h0c.39,0,.76.05,1.14.14.75.17,3.93,1.49,7.05,2.93,3.27,1.51,5.26,2.34,6.81,2.65.89.1,1.77.11,2.61,0,.61-.13,1.24-.34,1.97-.63,2.61-1.05,2.57-1.04,2.81-.4.28.72-1,2.16-2.63,2.99-.93.47-1.38.71-1.64,1.2-.13.36-.24.81-.34,1.4-.03.26-.07.56-.11.9-.32,2.91-1.31,7.05-3.11,12.91-2.83,9.23-6.64,16.9-10.45,21.01-3.79,4.09-7.43,5.24-11.55,3.66-.37-.14-.74-.32-1.11-.52-.36-.17-.68-.36-1.03-.6-7.2-4.75-13.87-19-15.84-34.53-.16-1.27-.33-2.12-.53-2.65,0-.02-.02-.04-.02-.06-.03-.08-.07-.16-.1-.23,0-.01-.01-.02-.02-.03-.08-.14-.17-.24-.26-.3-.23-.14-.78-.58-1.35-1.07h0c-.19-.16-.39-.34-.57-.51-.95-.86-1.27-1.37-1.14-1.8,0-.01,0-.02,0-.03,0,0,0,0,0,0,0,0,0,0,0,0,.01-.05.03-.09.06-.14.09-.2.18-.32.47-.3.14,0,.33.05.57.12,0,0,0,0,0,0,.05.01.1.03.15.05.53.17,1.3.46,2.5.91,1.72.65,2.98.88,4.83.88,3.02,0,4.48-.55,12.14-4.54.24-.12.42-.22.65-.33.3-.16.6-.31.9-.46,3.82-1.94,5.65-2.64,7.14-2.63h0Zm-57.72,8.44c2.46,0,4.96.79,7.13,2.16,1.49.88,2.76,2.04,3.77,3.46.56.74,1.04,1.54,1.43,2.38.49,1.07.72,1.74.83,2.86.37,1.75.38,3.52.07,5.22-.07,1.56-.31,2.15-1.12,3.76-2.2,4.39-6.15,7.02-11.36,7.58-.85.09-2.24.03-3.09-.14-1.63-.32-3.1-.85-4.41-1.56-.48-.22-.86-.41-1.01-.53-.18-.14-.36-.29-.54-.45-1.77-1.3-3.16-3.02-4.14-5.11-.01-.03-.03-.05-.04-.08-.38-.78-.61-1.34-.75-1.98-.18-.57-.33-1.17-.46-1.79-.33-1.61-.34-2.54-.03-4.04,1.25-6.22,5.36-10.31,11.61-11.54.7-.14,1.41-.2,2.12-.2h0Z"/>
          <path id="path2510" class="cls-5" d="m215.33,151.82c-1.25-.01-2.71.24-3.85.74-1.99.87-3.8,2.86-4.64,5.1-.93,2.46-.85,6.41.11,9.17.19.49.4.96.62,1.41.99,1.81,2.69,3.58,4.25,4.39,1.21.63,3.89.7,5.12.15,1.6-.73,3.16-7.32,2.8-11.82-.3-3.76-1.35-8.05-2.12-8.61-.47-.34-1.31-.52-2.29-.53Zm-103.84,5.87c-.57,0-1.14.05-1.7.16-5.02.99-8.34,4.28-9.34,9.29-.24,1.21-.24,1.96.03,3.25.1.5.22.98.37,1.44.12.51.3.96.6,1.59,0,.02.02.04.03.06.79,1.69,1.91,3.07,3.34,4.12.14.13.29.25.43.36.12.09.42.25.81.42,1.06.57,2.24,1,3.55,1.26.68.14,1.8.19,2.49.11,4.2-.45,7.37-2.57,9.15-6.1.65-1.29.84-1.76.9-3.02.25-1.37.24-2.79-.05-4.2-.09-.9-.27-1.44-.67-2.3-.31-.68-.7-1.32-1.15-1.92-.81-1.15-1.84-2.08-3.04-2.79-1.74-1.11-3.76-1.74-5.74-1.74h0Z"/>
          <path id="path2498" class="cls-3" d="m192.16,122.75c-1.96,0-3.83,1.92-3.84,3.93,0,.02,0,.04,0,.06.01.8.41,1.78.97,2.54.02.02.03.04.05.06.1.1.19.2.31.32.21.21.43.4.64.56,1.13.64,3.11.52,4.23-.28,1.4-1,1.92-2.9,1.23-4.54-.57-1.36-2.31-2.65-3.59-2.65h0Zm-65.14,3.44c-.11,0-.21,0-.31.01-2.83.29-4.36,3.11-3.08,5.69.34.61.83,1.17,1.37,1.59,1.36.89,3.21.8,4.63-.38.96-.8,1.17-1.24,1.32-2.74.02-.24.04-.45.05-.63-.05-.6-.18-1.13-.38-1.58-.17-.22-.4-.46-.71-.78-.49-.49-.85-.79-1.23-.97-.48-.16-1.03-.24-1.66-.23h0Z"/>
          <path id="path2720" class="cls-2" d="m164.62,163.89c-5.68.05-10.71,3.39-15.4,8.41,2.8,9.1,6.92,16.43,11.24,19.58.31.25.6.44.93.6.34.2.67.37,1.01.52,3.73,1.58,7.04.43,10.47-3.66,2.95-3.51,5.9-9.63,8.29-17.09-6.16-5.97-11.6-8.41-16.55-8.36Z"/>
        </g>
      </g>
    </g>
  </g>
</svg>