<svg width="615" height="529" viewBox="0 0 615 529" fill="none" xmlns="http://www.w3.org/2000/svg">
<g clip-path="url(#clip0_192_36)">
<path d="M346.586 31.2863L148.495 93.6402C146.129 94.3781 143.964 95.6514 142.17 97.3614C140.375 99.0713 139 101.172 138.149 103.5C134.741 110.043 132.251 120.575 134.094 126.42L247.358 485.75C250.1 494.449 261.253 500.323 269.907 497.599L466.46 435.729C472.437 433.848 478.237 425.529 480.942 418.201C482.142 415.719 482.702 412.977 482.571 410.223C482.577 409.062 482.41 407.906 482.074 406.795L367.112 42.081C365.818 37.9312 362.929 34.464 359.081 32.4402C355.233 30.4164 350.739 30.0014 346.586 31.2863Z" fill="#231F20"/>
<path d="M156.833 95.277L147.621 99.0221C141.144 101.061 135.856 118.705 137.919 125.25L251.173 484.549C253.237 491.094 262.187 495.802 268.664 493.763L465.217 431.893C471.694 429.854 480.259 414.561 478.196 408.015L363.235 43.3017C362.267 40.1746 360.099 37.5585 357.205 36.0271C354.311 34.4956 350.928 34.1738 347.798 35.1323" fill="#B0282F"/>
<path d="M156.833 95.277L147.621 99.0221C141.144 101.061 135.856 118.705 137.919 125.25L251.173 484.549C253.237 491.094 262.187 495.802 268.664 493.763L465.217 431.893C471.694 429.854 480.259 414.561 478.196 408.015L363.235 43.3017C362.267 40.1746 360.099 37.5585 357.205 36.0271C354.311 34.4956 350.928 34.1738 347.798 35.1323" stroke="#231F20" stroke-width="2" stroke-miterlimit="10"/>
<path d="M347.799 35.1322L149.709 97.486C148.163 97.9815 146.729 98.7767 145.491 99.8261C144.252 100.876 143.233 102.159 142.49 103.602C141.748 105.046 141.297 106.621 141.164 108.239C141.03 109.857 141.217 111.485 141.713 113.031L256.432 476.975C256.912 478.526 257.692 479.968 258.73 481.217C259.767 482.467 261.04 483.5 262.476 484.257C263.912 485.015 265.484 485.483 267.101 485.633C268.717 485.784 270.348 485.615 271.899 485.135L469.99 422.781C471.536 422.286 472.969 421.491 474.208 420.441C475.446 419.392 476.466 418.109 477.208 416.665C477.951 415.222 478.402 413.646 478.535 412.028C478.668 410.41 478.481 408.782 477.985 407.236L363.267 43.292C362.787 41.741 362.006 40.2996 360.969 39.0502C359.932 37.8007 358.659 36.7677 357.222 36.0099C355.786 35.2522 354.215 34.7847 352.598 34.6341C350.981 34.4835 349.35 34.6528 347.799 35.1322Z" fill="#D2232A"/>
<path d="M186.533 144.95C199.534 140.858 206.753 127.002 202.655 114.003C198.558 101.004 184.696 93.784 171.695 97.8765C158.693 101.969 151.475 115.824 155.572 128.824C159.67 141.823 173.531 149.043 186.533 144.95Z" fill="white" stroke="#231F20" stroke-width="2" stroke-miterlimit="10"/>
<path d="M184.971 139.997C195.237 136.766 200.936 125.826 197.701 115.563C194.465 105.299 183.521 99.5988 173.256 102.83C162.991 106.061 157.292 117.001 160.527 127.264C163.762 137.527 174.706 143.228 184.971 139.997Z" fill="#00AEEF" stroke="#231F20" stroke-width="2" stroke-miterlimit="10"/>
<path d="M209.907 101.227C213.107 100.22 214.871 96.7729 213.848 93.5274C212.825 90.2819 209.402 88.4673 206.203 89.4744C203.003 90.4815 201.239 93.9289 202.262 97.1744C203.285 100.42 206.708 102.234 209.907 101.227Z" fill="#ED1C24" stroke="#231F20" stroke-width="2" stroke-miterlimit="10"/>
<path d="M229.52 95.0524C232.719 94.0453 234.484 90.5979 233.461 87.3524C232.438 84.1069 229.015 82.2923 225.815 83.2993C222.616 84.3064 220.852 87.7538 221.875 90.9993C222.898 94.2448 226.321 96.0594 229.52 95.0524Z" fill="#FFF200" stroke="#231F20" stroke-width="2" stroke-miterlimit="10"/>
<path d="M249.133 88.8773C252.332 87.8702 254.096 84.4228 253.073 81.1773C252.05 77.9318 248.627 76.1172 245.428 77.1243C242.228 78.1314 240.464 81.5788 241.487 84.8243C242.51 88.0698 245.933 89.8844 249.133 88.8773Z" fill="#00A651" stroke="#231F20" stroke-width="2" stroke-miterlimit="10"/>
<path d="M367.381 56.2424L285.901 81.8924C282.637 82.9283 279.842 85.0806 278.007 87.9717L254.02 127.599C252.179 130.504 249.37 132.664 246.089 133.698L157.054 161.726L158.89 167.55L247.886 139.534C252.531 138.071 256.513 135.022 259.134 130.919L283.143 91.2259C284.215 89.5538 285.841 88.3116 287.737 87.7162L369.216 62.0663L367.381 56.2424Z" fill="#B0282F"/>
<path d="M157.054 161.728L246.051 133.711C249.332 132.677 252.141 130.517 253.982 127.612L278.007 87.9722C279.85 85.0694 282.66 82.9118 285.94 81.8807L367.382 56.2424" stroke="#231F20" stroke-width="2" stroke-miterlimit="10"/>
<path d="M158.889 167.55L247.886 139.533C252.531 138.071 256.512 135.021 259.134 130.918L283.142 91.2246C284.215 89.5524 285.841 88.3102 287.736 87.7148L369.216 62.0644" stroke="#231F20" stroke-width="2" stroke-miterlimit="10"/>
<path d="M372.925 392.164L298.819 415.491C298.208 415.683 297.642 415.994 297.152 416.407C296.663 416.82 296.26 417.326 295.968 417.895C295.675 418.464 295.499 419.086 295.448 419.725C295.398 420.363 295.475 421.005 295.674 421.613L305.858 453.921C306.043 454.534 306.349 455.104 306.756 455.598C307.163 456.092 307.664 456.501 308.231 456.8C308.797 457.099 309.417 457.283 310.055 457.341C310.692 457.399 311.335 457.329 311.946 457.137L386.052 433.81C386.663 433.618 387.229 433.307 387.718 432.894C388.208 432.481 388.611 431.976 388.903 431.406C389.195 430.837 389.372 430.215 389.422 429.577C389.473 428.938 389.396 428.296 389.196 427.688L379.012 395.38C378.827 394.767 378.522 394.197 378.115 393.703C377.707 393.209 377.206 392.8 376.64 392.501C376.074 392.202 375.454 392.018 374.816 391.96C374.178 391.902 373.535 391.972 372.925 392.164Z" fill="#39B54A" stroke="#231F20" stroke-width="2" stroke-miterlimit="10"/>
<path d="M277.517 408.969C278.193 401.26 272.488 394.461 264.773 393.783C257.058 393.106 250.257 398.806 249.581 406.515C248.905 414.224 254.61 421.023 262.325 421.701C270.04 422.378 276.842 416.678 277.517 408.969Z" fill="#231F20" stroke="#231F20" stroke-width="2" stroke-miterlimit="10"/>
<path d="M278.648 406.796C279.324 399.087 273.618 392.288 265.904 391.611C258.189 390.933 251.387 396.633 250.711 404.342C250.035 412.051 255.741 418.85 263.456 419.528C271.17 420.206 277.972 414.505 278.648 406.796Z" fill="#58595B" stroke="#231F20" stroke-width="2" stroke-miterlimit="10"/>
<path d="M291.716 400.684L321.799 391.213C323.461 390.69 324.323 388.728 323.712 386.789C323.101 384.85 321.317 383.754 319.617 384.29L289.533 393.76C287.872 394.283 287.01 396.246 287.619 398.177C288.227 400.108 290.054 401.207 291.716 400.684Z" fill="#ED1C24" stroke="#231F20" stroke-width="2" stroke-miterlimit="10"/>
<path d="M339.551 385.623L369.665 376.143C371.327 375.62 372.188 373.657 371.577 371.718C370.966 369.78 369.114 368.705 367.483 369.219L337.399 378.689C335.737 379.212 334.876 381.175 335.484 383.106C336.093 385.037 337.889 386.146 339.551 385.623Z" fill="#00A79D" stroke="#231F20" stroke-width="2" stroke-miterlimit="10"/>
<path d="M447.895 363.667L430.47 369.152L424.981 351.738C424.869 351.384 424.622 351.089 424.294 350.917C423.965 350.745 423.582 350.709 423.228 350.819L409.888 355.018C409.118 355.26 407.507 359.107 407.737 359.838L412.46 374.821L397.073 379.664C396.304 379.907 394.684 383.756 394.917 384.494L399.119 397.824C399.231 398.179 399.479 398.475 399.809 398.647C400.14 398.819 400.524 398.853 400.879 398.741L418.305 393.256L423.794 410.671C423.907 411.022 424.154 411.315 424.482 411.486C424.81 411.657 425.191 411.691 425.544 411.582L438.884 407.383C439.654 407.141 441.268 403.302 441.035 402.563L436.315 387.587L451.701 382.744C452.471 382.502 454.093 378.66 453.86 377.922L449.656 364.584C449.544 364.229 449.295 363.933 448.965 363.761C448.635 363.589 448.25 363.555 447.895 363.667Z" fill="#231F20" stroke="#231F20" stroke-width="2" stroke-miterlimit="10"/>
<path d="M447.895 363.667L430.47 369.152L424.981 351.738C424.87 351.384 424.623 351.089 424.294 350.917C423.966 350.745 423.582 350.709 423.228 350.819L409.888 355.018C409.712 355.073 409.549 355.162 409.408 355.281C409.267 355.399 409.15 355.544 409.065 355.708C408.98 355.871 408.928 356.05 408.912 356.233C408.896 356.417 408.916 356.602 408.971 356.777L414.46 374.192L397.043 379.674C396.688 379.786 396.392 380.034 396.22 380.364C396.048 380.694 396.014 381.079 396.126 381.434L400.33 394.771C400.386 394.947 400.475 395.11 400.593 395.25C400.712 395.391 400.857 395.507 401.02 395.592C401.184 395.676 401.362 395.727 401.545 395.743C401.729 395.758 401.913 395.737 402.088 395.681L419.506 390.198L424.998 407.62C425.053 407.796 425.142 407.959 425.261 408.1C425.379 408.241 425.524 408.358 425.688 408.443C425.851 408.528 426.03 408.58 426.214 408.597C426.397 408.613 426.582 408.592 426.758 408.537L440.098 404.338C440.451 404.225 440.745 403.976 440.915 403.647C441.086 403.318 441.119 402.934 441.007 402.581L435.516 385.159L452.941 379.674C453.117 379.62 453.28 379.531 453.421 379.414C453.563 379.296 453.68 379.152 453.765 378.989C453.85 378.826 453.903 378.648 453.919 378.465C453.936 378.282 453.915 378.097 453.86 377.922L449.656 364.584C449.544 364.229 449.296 363.933 448.966 363.761C448.635 363.589 448.251 363.556 447.895 363.667Z" fill="#58595B" stroke="#231F20" stroke-width="2" stroke-miterlimit="10"/>
<path d="M426.836 385.524C430.065 384.507 431.858 381.066 430.84 377.837C429.822 374.609 426.38 372.816 423.15 373.832C419.921 374.848 418.129 378.29 419.146 381.518C420.164 384.747 423.607 386.54 426.836 385.524Z" fill="#58595B" stroke="#231F20" stroke-width="2" stroke-miterlimit="10"/>
<path d="M363.387 110.457L183.366 167.122C182.253 167.474 181.239 168.085 180.409 168.905C179.578 169.725 178.953 170.731 178.587 171.839C177.001 173.623 176.075 177.956 176.846 180.402L234.87 364.48C235.43 366.253 236.668 367.733 238.315 368.596L264.537 382.942L264.833 383.077L265.556 383.466C266.37 383.895 267.26 384.158 268.176 384.239C269.091 384.321 270.014 384.221 270.891 383.943L430.378 333.741C432.817 332.974 435.83 329.734 436.373 327.407C437.063 326.468 437.523 325.379 437.714 324.229C437.906 323.079 437.823 321.9 437.474 320.787L372.703 115.303C372.41 114.373 371.936 113.51 371.309 112.763C370.682 112.016 369.914 111.4 369.049 110.95C368.184 110.5 367.239 110.225 366.267 110.14C365.295 110.055 364.317 110.163 363.387 110.457Z" fill="#939598" stroke="#231F20" stroke-width="2" stroke-miterlimit="10"/>
<path d="M363.511 110.849L183.49 167.514C181.734 168.085 180.274 169.327 179.43 170.969C178.585 172.611 178.424 174.52 178.981 176.281L237.267 361.19C237.543 362.067 237.989 362.881 238.579 363.586C239.17 364.29 239.894 364.872 240.709 365.297L266.933 379.651C267.748 380.076 268.638 380.336 269.553 380.416C270.468 380.497 271.389 380.396 272.265 380.12L432.491 329.686C434.262 329.126 435.739 327.887 436.596 326.239C437.453 324.592 437.62 322.671 437.062 320.9L372.296 115.431C371.737 113.66 370.498 112.182 368.851 111.323C367.204 110.464 365.283 110.294 363.511 110.849Z" fill="#F1F2F2" stroke="#231F20" stroke-width="2" stroke-miterlimit="10"/>
<path d="M277.181 368.275C282.56 366.582 285.543 360.839 283.844 355.449C282.145 350.058 276.406 347.06 271.027 348.753C265.648 350.447 262.665 356.189 264.364 361.58C266.064 366.971 271.802 369.968 277.181 368.275Z" fill="#ED1C24" stroke="#231F20" stroke-width="2" stroke-miterlimit="10"/>
<path d="M376.556 317.922L416.781 305.257C417.036 305.177 417.249 304.999 417.373 304.761C417.496 304.524 417.52 304.248 417.44 303.993C417.36 303.738 417.181 303.525 416.944 303.401C416.707 303.278 416.43 303.253 416.175 303.334L375.95 315.998C375.824 316.039 375.707 316.104 375.606 316.191C375.506 316.277 375.423 316.383 375.364 316.502C375.304 316.62 375.269 316.75 375.26 316.882C375.251 317.015 375.269 317.147 375.312 317.273C375.391 317.524 375.566 317.733 375.8 317.855C376.033 317.977 376.305 318.001 376.556 317.922Z" fill="#231F20"/>
<path d="M419.832 314.939L379.607 327.603C379.375 327.7 379.187 327.88 379.081 328.109C378.975 328.337 378.958 328.597 379.033 328.837C379.109 329.077 379.272 329.281 379.49 329.407C379.708 329.533 379.965 329.573 380.211 329.519L420.436 316.855C420.669 316.758 420.857 316.578 420.963 316.35C421.069 316.121 421.086 315.862 421.01 315.621C420.934 315.381 420.772 315.178 420.554 315.052C420.336 314.925 420.078 314.885 419.832 314.939Z" fill="#231F20"/>
<path d="M421.66 320.738L381.435 333.402C381.202 333.499 381.014 333.679 380.908 333.908C380.802 334.136 380.785 334.396 380.861 334.636C380.936 334.876 381.099 335.079 381.317 335.206C381.535 335.332 381.792 335.372 382.038 335.318L422.264 322.654C422.496 322.557 422.684 322.377 422.79 322.149C422.896 321.92 422.913 321.66 422.838 321.42C422.762 321.18 422.599 320.977 422.381 320.851C422.163 320.724 421.906 320.684 421.66 320.738Z" fill="#231F20"/>
<path d="M418.005 309.14L377.78 321.805C377.547 321.901 377.36 322.082 377.253 322.31C377.147 322.538 377.13 322.798 377.206 323.038C377.282 323.278 377.444 323.482 377.662 323.608C377.88 323.734 378.138 323.774 378.384 323.72L418.609 311.056C418.841 310.959 419.029 310.779 419.135 310.551C419.242 310.322 419.258 310.063 419.183 309.822C419.107 309.582 418.944 309.379 418.726 309.253C418.508 309.127 418.251 309.086 418.005 309.14Z" fill="#231F20"/>
<path d="M268.938 149.554C270.281 149.131 271.025 147.697 270.601 146.35C270.176 145.004 268.744 144.255 267.401 144.677C266.058 145.1 265.314 146.534 265.739 147.881C266.163 149.227 267.596 149.976 268.938 149.554Z" fill="#ED1C24"/>
<path d="M283.234 145.053C284.577 144.63 285.321 143.196 284.897 141.849C284.472 140.502 283.04 139.753 281.697 140.176C280.354 140.599 279.61 142.033 280.035 143.38C280.459 144.726 281.892 145.475 283.234 145.053Z" fill="#ED1C24"/>
<path d="M347.799 35.1322L149.709 97.486C148.163 97.9815 146.729 98.7767 145.491 99.8261C144.252 100.876 143.233 102.159 142.49 103.602C141.748 105.046 141.297 106.621 141.164 108.239C141.03 109.857 141.217 111.485 141.713 113.031L256.432 476.975C256.912 478.526 257.692 479.968 258.73 481.217C259.767 482.467 261.04 483.5 262.476 484.257C263.912 485.015 265.484 485.483 267.101 485.633C268.717 485.784 270.348 485.615 271.899 485.135L469.99 422.781C471.536 422.286 472.969 421.491 474.208 420.441C475.446 419.392 476.466 418.109 477.208 416.665C477.951 415.222 478.402 413.646 478.535 412.028C478.668 410.41 478.481 408.782 477.985 407.236L363.267 43.292C362.787 41.741 362.006 40.2996 360.969 39.0502C359.932 37.8007 358.659 36.7677 357.222 36.0099C355.786 35.2522 354.215 34.7847 352.598 34.6341C350.981 34.4835 349.35 34.6528 347.799 35.1322Z" stroke="#231F20" stroke-width="2" stroke-miterlimit="10"/>
<path opacity="0.25" d="M362.958 123.52L191.244 177.571L245.36 349.252L417.074 295.201L362.958 123.52Z" fill="#231F20"/>
<path d="M361.061 127.161L194.886 179.468L247.256 345.611L413.431 293.304L361.061 127.161Z" fill="#58595B"/>
</g>
<defs>
<clipPath id="clip0_192_36">
<rect width="615" height="529" fill="white"/>
</clipPath>
</defs>
</svg>
