<svg width="815" height="241" viewBox="0 0 815 241" fill="none" xmlns="http://www.w3.org/2000/svg">
<path d="M3.99219 44.8242C11.8698 42.2201 19.2591 39.8112 26.1602 37.5977C33.1263 35.3841 40.4505 33.3008 48.1328 31.3477C55.8151 29.3294 63.1719 27.7344 70.2031 26.5625C75.6068 25.651 81.1406 25.1953 86.8047 25.1953C96.2448 25.1953 102.43 25.4557 105.359 25.9766C109.786 26.8229 113.953 28.1901 117.859 30.0781C121.831 31.9661 125.346 34.5052 128.406 37.6953C131.531 40.8203 134.07 44.5312 136.023 48.8281C136.805 50.5859 137.195 52.4414 137.195 54.3945C137.195 61.6862 133.191 70.6706 125.184 81.3477C117.241 92.0247 109.233 101.335 101.16 109.277C93.1523 117.22 87.1628 122.917 83.1914 126.367L100.77 187.988L75.1836 206.445L30.3594 78.418C30.2292 78.418 29.6107 79.0365 28.5039 80.2734C27.3971 81.5104 25.9323 83.138 24.1094 85.1562C22.3516 87.1094 21.2448 88.3138 20.7891 88.7695C20.5938 88.7695 19.9427 87.3698 18.8359 84.5703C17.7943 81.7708 16.362 77.8971 14.5391 72.9492C12.7812 67.9362 10.7956 62.4023 8.58203 56.3477C6.30339 50.2279 4.77344 46.3867 3.99219 44.8242ZM67.1758 71.9727L75.1836 100.781C79.2201 96.6797 84.2331 91.0807 90.2227 83.9844C96.2122 76.888 99.207 71.7448 99.207 68.5547C99.207 67.3177 98.6862 66.6016 97.6445 66.4062C94.7148 65.7552 91.8177 65.4297 88.9531 65.4297C80.3594 65.4297 73.1003 67.6107 67.1758 71.9727ZM210.535 94.2383C215.158 96.7122 218.901 100.065 221.766 104.297C224.695 108.464 226.811 113.184 228.113 118.457C229.48 123.665 230.164 129.102 230.164 134.766C230.164 139.453 229.773 143.978 228.992 148.34C228.276 152.702 227.267 156.706 225.965 160.352C224.663 163.997 223.133 167.09 221.375 169.629C217.273 175.749 212.879 181.022 208.191 185.449C203.504 189.876 198.719 193.457 193.836 196.191C188.953 198.861 184.103 200.814 179.285 202.051C174.533 203.353 169.812 204.004 165.125 204.004C159.591 204.004 154.318 203.125 149.305 201.367C144.357 199.674 140.125 197.428 136.609 194.629C130.815 189.811 126.29 183.333 123.035 175.195C119.78 166.992 118.152 158.333 118.152 149.219C118.152 133.529 122.677 120.866 131.727 111.23C139.474 102.962 147.482 96.7448 155.75 92.5781C164.018 88.3464 172.482 86.2305 181.141 86.2305C186.219 86.2305 191.102 86.8815 195.789 88.1836C200.477 89.4206 205.392 91.4388 210.535 94.2383ZM204.773 110.645C203.667 115.592 201.258 119.954 197.547 123.73C193.901 127.507 190.32 129.395 186.805 129.395C185.047 129.395 183.484 128.939 182.117 128.027C180.164 126.465 179.188 123.73 179.188 119.824C179.188 116.829 180.164 113.867 182.117 110.938C184.135 108.008 187.293 105.697 191.59 104.004C187.293 104.004 183.126 104.818 179.09 106.445C175.118 108.073 171.701 110.189 168.836 112.793C165.971 115.332 163.66 118.229 161.902 121.484C160.21 124.674 159.363 127.897 159.363 131.152C159.363 137.207 162.163 142.025 167.762 145.605C172.97 148.926 177.918 150.586 182.605 150.586C187.228 150.586 191.329 149.056 194.91 145.996C198.491 142.871 201.225 138.9 203.113 134.082C205.001 129.199 205.945 124.382 205.945 119.629C205.945 116.374 205.555 113.379 204.773 110.645ZM213.953 36.8164L263.562 16.0156L270.789 128.809L311.609 106.445L353.992 112.793L298.719 155.176L350.77 194.434L353.113 233.594L276.355 178.418L278.797 226.367L232.312 227.246L223.523 57.6172L209.168 60.8398L213.953 36.8164ZM421.961 145.996L445.496 174.414C443.608 179.883 439.116 184.896 432.02 189.453C424.988 194.01 416.59 197.591 406.824 200.195C397.124 202.865 387.423 204.199 377.723 204.199C369.129 204.199 361.447 203.06 354.676 200.781C347.97 198.503 342.794 195.052 339.148 190.43C332.833 182.487 329.676 172.331 329.676 159.961C329.676 150.195 331.434 140.592 334.949 131.152C338.53 121.647 342.306 115.007 346.277 111.23C351.03 106.738 356.173 102.995 361.707 100C367.306 97.0052 373.1 94.7591 379.09 93.2617C385.079 91.7643 391.232 91.0156 397.547 91.0156C405.815 91.0156 413.66 92.3503 421.082 95.0195C428.569 97.6237 435.112 101.432 440.711 106.445L387.098 170.41C391.85 170.41 396.342 169.434 400.574 167.48C404.871 165.462 408.81 162.63 412.391 158.984C415.971 155.273 419.161 150.944 421.961 145.996ZM394.91 123.242C391.72 121.615 388.465 120.801 385.145 120.801C381.629 120.801 378.211 121.517 374.891 122.949C371.635 124.382 369.324 126.074 367.957 128.027C363.921 133.236 361.902 138.965 361.902 145.215C361.902 147.493 362.13 149.674 362.586 151.758C363.042 153.841 363.823 156.706 364.93 160.352L394.91 123.242ZM517.566 66.4062C512.163 64.5182 507.866 63.5742 504.676 63.5742C500.249 63.5742 495.984 65.0391 491.883 67.9688L496.766 156.836C507.768 152.083 515.092 147.396 518.738 142.773C522.449 138.086 524.695 134.212 525.477 131.152C526.128 129.72 526.779 126.172 527.43 120.508C528.146 114.844 528.504 108.529 528.504 101.562C528.504 92.4479 527.658 84.668 525.965 78.2227C524.337 71.7122 521.538 67.7734 517.566 66.4062ZM555.945 48.8281C559.005 54.9479 561.544 61.2956 563.562 67.8711C565.646 74.3815 567.143 80.8919 568.055 87.4023C569.031 93.9128 569.52 100.326 569.52 106.641C569.52 117.969 567.99 128.841 564.93 139.258C561.935 149.674 557.605 159.017 551.941 167.285C546.277 175.488 539.409 182.161 531.336 187.305C523.328 192.448 514.441 195.605 504.676 196.777L463.953 204.004L450.281 78.418C449.826 78.418 448.23 80.1432 445.496 83.5938C442.762 87.0443 441.167 88.7695 440.711 88.7695C439.279 87.793 438.009 85.026 436.902 80.4688C435.861 75.9115 434.331 68.8151 432.312 59.1797C430.359 49.5443 428.895 43.6849 427.918 41.6016C442.957 36.7188 457.117 32.7799 470.398 29.7852C483.68 26.7253 496.049 25.1953 507.508 25.1953C532.117 25.1953 548.263 33.0729 555.945 48.8281ZM652.039 145.996L675.574 174.414C673.686 179.883 669.194 184.896 662.098 189.453C655.066 194.01 646.668 197.591 636.902 200.195C627.202 202.865 617.501 204.199 607.801 204.199C599.207 204.199 591.525 203.06 584.754 200.781C578.048 198.503 572.872 195.052 569.227 190.43C562.911 182.487 559.754 172.331 559.754 159.961C559.754 150.195 561.512 140.592 565.027 131.152C568.608 121.647 572.384 115.007 576.355 111.23C581.108 106.738 586.251 102.995 591.785 100C597.384 97.0052 603.178 94.7591 609.168 93.2617C615.158 91.7643 621.31 91.0156 627.625 91.0156C635.893 91.0156 643.738 92.3503 651.16 95.0195C658.647 97.6237 665.19 101.432 670.789 106.445L617.176 170.41C621.928 170.41 626.421 169.434 630.652 167.48C634.949 165.462 638.888 162.63 642.469 158.984C646.049 155.273 649.24 150.944 652.039 145.996ZM624.988 123.242C621.798 121.615 618.543 120.801 615.223 120.801C611.707 120.801 608.289 121.517 604.969 122.949C601.714 124.382 599.402 126.074 598.035 128.027C593.999 133.236 591.98 138.965 591.98 145.215C591.98 147.493 592.208 149.674 592.664 151.758C593.12 153.841 593.901 156.706 595.008 160.352L624.988 123.242ZM732.02 181.445L708.387 212.012L657.996 213.574L706.824 149.023L651.648 77.6367L705.164 79.9805L732.02 115.43L758.777 79.9805L812.391 77.6367L757.215 149.023L806.043 213.574L755.555 212.012L732.02 181.445Z" fill="#1F1F1F"/>
</svg>
